<?xml version="1.0" encoding="UTF-8"?>
<svg version="1.1" xmlns="http://www.w3.org/2000/svg" width="256" height="256">
<path d="M0 0 C10.09212703 7.23449966 17.07310578 17.036847 19.375 29.375 C20.25970129 43.83646338 17.74845141 55.53814033 8.625 67.0625 C1.34542081 75.08489339 -9.7899461 80.75187316 -20.62109375 81.61328125 C-35.57988579 81.93588857 -46.51759241 77.90231793 -57.46484375 67.65234375 C-66.61969142 57.79865275 -69.24422083 45.62109152 -68.9375 32.609375 C-68.44042822 23.28927917 -64.28589706 15.61984635 -58.625 8.375 C-58.14675781 7.75882813 -57.66851562 7.14265625 -57.17578125 6.5078125 C-42.80674558 -9.77950753 -17.66034278 -10.66284847 0 0 Z " fill="#FFFFFF" transform="translate(147.625,91.625)"/>
<path d="M0 0 C2.93382632 1.39883142 5.60867856 2.9913453 8.30957031 4.79736328 C9.5704245 5.63800827 9.5704245 5.63800827 10.85675049 6.49563599 C11.75480408 7.09777924 12.65285767 7.69992249 13.578125 8.3203125 C14.5046991 8.93897186 15.43127319 9.55763123 16.38592529 10.19503784 C19.34206897 12.16952894 22.29605544 14.1472208 25.25 16.125 C27.25506699 17.46505526 29.26027366 18.80490154 31.265625 20.14453125 C36.17870618 23.42726518 41.09002054 26.71262891 46 30 C46.54269531 29.65066406 47.08539063 29.30132812 47.64453125 28.94140625 C48.35996094 28.48636719 49.07539063 28.03132813 49.8125 27.5625 C50.52019531 27.11003906 51.22789062 26.65757812 51.95703125 26.19140625 C57.00219652 23.24919706 62.33019739 23.44155159 68 24 C74.46094569 25.99800673 78.95768987 30.00947445 82.75 35.5625 C85.43362903 40.79557661 85.90164466 46.40005108 84.46875 52.12109375 C82.02564637 59.14501669 78.32843889 63.59505652 71.6953125 67.04296875 C65.86117718 69.11450955 59.43703222 69.27069432 53.6015625 67.11328125 C47.77062752 63.75099882 43.32073139 58.92857829 40.5625 52.8125 C40.03022889 49.20488467 40.12970095 46.37000805 40.46484375 42.76171875 C40.56273193 41.68237061 40.66062012 40.60302246 40.76147461 39.4909668 C40.84018799 38.66894775 40.91890137 37.84692871 41 37 C40.46351334 36.64334763 39.92702667 36.28669525 39.37428284 35.91923523 C33.8041732 32.214 28.24161185 28.49764102 22.68334961 24.7746582 C20.60650024 23.38570528 18.52772708 21.99962454 16.44702148 20.61645508 C13.46090441 18.63069078 10.48180151 16.63478462 7.50390625 14.63671875 C6.56849503 14.01786301 5.6330838 13.39900726 4.66932678 12.76139832 C3.80850998 12.1810231 2.94769318 11.60064789 2.06079102 11.00268555 C1.29912125 10.4941655 0.53745148 9.98564545 -0.24729919 9.4617157 C-2 8 -2 8 -3 5 C-1.5625 2.3125 -1.5625 2.3125 0 0 Z " fill="#FFFFFF" transform="translate(167,149)"/>
<path d="M0 0 C4.77088598 3.11106955 8.09456501 7.25285431 10.58203125 12.3359375 C12.02268573 20.17950075 11.51933309 26.54587179 7.14453125 33.3984375 C3.15888926 38.02985439 -1.81001586 41.28675177 -7.85546875 42.3984375 C-15.8801873 42.79075707 -21.08860567 40.43824451 -27.85546875 36.3984375 C-28.33790039 36.75035156 -28.82033203 37.10226563 -29.31738281 37.46484375 C-34.81221778 41.46773826 -40.32435546 45.44581438 -45.85546875 49.3984375 C-46.83652588 50.09984863 -46.83652588 50.09984863 -47.83740234 50.81542969 C-49.48021642 51.98094881 -51.13604722 53.12806247 -52.79296875 54.2734375 C-53.70949219 54.91023438 -54.62601563 55.54703125 -55.5703125 56.203125 C-56.70146484 56.79480469 -56.70146484 56.79480469 -57.85546875 57.3984375 C-58.84546875 57.0684375 -59.83546875 56.7384375 -60.85546875 56.3984375 C-62.04296875 53.3359375 -62.04296875 53.3359375 -62.85546875 50.3984375 C-61.19527916 49.26433396 -59.53506673 48.13026386 -57.87475586 46.99633789 C-56.43397253 46.00667083 -54.99732603 45.01095661 -53.56469727 44.00952148 C-49.98268446 41.50942275 -46.3983657 39.09235918 -42.640625 36.86328125 C-38.98398909 34.62617921 -35.82567894 32.51856366 -32.85546875 29.3984375 C-32.24291439 26.01607214 -32.60381347 23.63739002 -33.31640625 20.2890625 C-34.30434969 14.99139479 -32.40022757 10.88584467 -29.6328125 6.4296875 C-22.29090682 -3.22318013 -10.64358554 -5.25655188 0 0 Z " fill="#FFFFFF" transform="translate(225.85546875,49.6015625)"/>
<path d="M0 0 C1.4606285 2.64738916 2 3.89448334 2 7 C-2.51812232 9.28373583 -7.0388203 11.56225804 -11.56201172 13.8359375 C-13.1011475 14.61054162 -14.639563 15.38657862 -16.17724609 16.1640625 C-18.38452451 17.27979833 -20.59432154 18.3903961 -22.8046875 19.5 C-23.49432587 19.84998047 -24.18396423 20.19996094 -24.89450073 20.56054688 C-29.77225659 23 -29.77225659 23 -32 23 C-31.89300781 23.61746094 -31.78601562 24.23492187 -31.67578125 24.87109375 C-30.77223669 31.25419885 -31.03571308 36.19830226 -34 42 C-36.1875 44.75 -36.1875 44.75 -39 47 C-39.54269531 47.46535156 -40.08539063 47.93070313 -40.64453125 48.41015625 C-46.62329335 52.92884171 -52.74716684 52.95312576 -60 52 C-66.75158392 50.23251218 -70.52950242 45.86788078 -74 40 C-76.75082094 33.99820885 -76.86788709 28.01369627 -74.8125 21.8125 C-72.26334315 15.72549462 -67.51820447 12.35890707 -62 9 C-56.02353952 7.00784651 -49.34735533 6.97057027 -43.625 9.75 C-40.47864377 11.49643562 -37.79686524 13.74669919 -35 16 C-34.04633545 15.5153125 -33.0926709 15.030625 -32.11010742 14.53125 C-28.57409886 12.73611381 -25.03413672 10.94889951 -21.49291992 9.1640625 C-19.96025172 8.39018111 -18.42866701 7.61414997 -16.89819336 6.8359375 C-14.69926151 5.71829564 -12.4965604 4.60842013 -10.29296875 3.5 C-9.60849167 3.15001953 -8.92401459 2.80003906 -8.21879578 2.43945312 C-5.28663213 0.97285259 -3.32496818 0 0 0 Z " fill="#FFFFFF" transform="translate(80,150)"/>
<path d="M0 0 C6.21702878 3.59011521 10.47039399 8.47046317 12.6875 15.3125 C13.57820829 21.62663213 12.82451288 26.68751139 9.6875 32.3125 C8.73836183 33.27994111 7.77986752 34.23828683 6.8125 35.1875 C4.42841213 37.94609541 4.42841213 37.94609541 4.9362793 40.16674805 C7.32973951 46.73899831 10.28201472 52.98021953 13.375 59.25 C14.3823871 61.29907363 15.38647482 63.34977376 16.38671875 65.40234375 C16.82846436 66.29816162 17.27020996 67.19397949 17.7253418 68.11694336 C18.6875 70.3125 18.6875 70.3125 18.6875 72.3125 C16.0475 72.6425 13.4075 72.9725 10.6875 73.3125 C8.68869778 69.22148649 6.69500698 65.12803794 4.70605469 61.03222656 C4.02842606 59.63863748 3.34939476 58.24572955 2.66894531 56.85351562 C1.69228259 54.85463157 0.72065656 52.85336863 -0.25 50.8515625 C-0.55623291 50.22754547 -0.86246582 49.60352844 -1.17797852 48.96060181 C-3.3125 44.54024341 -3.3125 44.54024341 -3.3125 42.3125 C-4.42625 42.539375 -5.54 42.76625 -6.6875 43 C-12.77311183 43.72165662 -18.44322548 42.44564978 -23.3984375 38.76171875 C-28.51810351 33.89047535 -31.72416026 28.71838691 -32.37109375 21.51953125 C-32.19169913 14.76233394 -29.7788217 8.65826127 -25.1015625 3.78515625 C-17.8918292 -2.14949321 -8.60054213 -3.96077598 0 0 Z " fill="#FFFFFF" transform="translate(93.3125,9.6875)"/>
<path d="M0 0 C0.66 0.33 1.32 0.66 2 1 C2.41064453 3.68383789 2.41064453 3.68383789 2.6328125 7.22265625 C2.75849609 9.11274414 2.75849609 9.11274414 2.88671875 11.04101562 C2.96635138 12.38149822 3.04577574 13.72199321 3.125 15.0625 C3.21136357 16.4069576 3.29859195 17.75135995 3.38671875 19.09570312 C3.59968555 22.39668849 3.80370339 25.69798811 4 29 C5.09054688 29.13019531 6.18109375 29.26039063 7.3046875 29.39453125 C14.13849781 30.5142359 18.04839154 34.51165492 22 40 C24.8400902 46.08590758 24.9388842 52.7502207 22.9375 59.125 C20.44378268 64.99050412 16.10084988 68.77120101 10.6875 71.9375 C3.35143063 74.0512827 -3.09469811 73.78982569 -9.9609375 70.3203125 C-15.59063759 66.67502777 -18.75726371 61.72440059 -20.59765625 55.33203125 C-21.68297593 49.04139196 -20.42085023 43.37562179 -17 38 C-13.43994046 34.07480615 -10.07012759 30.69004253 -5 29 C-5.33 20.09 -5.66 11.18 -6 2 C-4.02 1.34 -2.04 0.68 0 0 Z " fill="#FFFFFF" transform="translate(136,175)"/>
</svg>
